# xmcd
#
# Track frame offsets:
# 150
# 17635
# 39233
# 54134
# 73038
# 90852
# 112268
# 128113
# 145307
# 165053
#
# Disc length: 2339 seconds
#
#
# Revision: 0
# Processed by: cddbd v1.5.2PL0 Copyright (c) Steve Scherf et al.
# Submitted via: Nero 7, 11, 10, 0 
#
DISCID=7409210a
DTITLE=Aaron Richner - Rain Came Down
DYEAR=2001
DGENRE=Blues
TTITLE0=Wanderin'
TTITLE1=Blues I Know
TTITLE2=Movin' On
TTITLE3=Dark In This Land
TTITLE4=Bring It My Way
TTITLE5=What Would You Say
TTITLE6=Tell Me
TTITLE7=Rain Came Down
TTITLE8=Leavin' One More Time
TTITLE9=Life By The Drop
EXTD=
EXTT0=Wanderin'
EXTT1=Blues I Know
EXTT2=Movin' On
EXTT3=Dark In This Land
EXTT4=Bring It My Way
EXTT5=What Would You Say
EXTT6=Tell Me
EXTT7=Rain Came Down
EXTT8=Leavin' One More Time
EXTT9=Life By The Drop
PLAYORDER=
